<svg width="50" height="50" viewBox="0 0 50 50" fill="none" xmlns="http://www.w3.org/2000/svg">
<path d="M21.0835 18.5446C21.4704 18.2866 21.9485 18.056 22.5 17.8775L22.5 22.1225C21.9485 21.944 21.4704 21.7134 21.0835 21.4554C20.1732 20.8486 20 20.2848 20 20C20 19.7152 20.1732 19.1514 21.0835 18.5446Z" fill="#214253"/>
<path d="M27.5 32.1225L27.5 27.8775C28.0516 28.056 28.5296 28.2866 28.9166 28.5446C29.8269 29.1515 30.0001 29.7153 30.0001 30C30.0001 30.2848 29.8269 30.8486 28.9166 31.4554C28.5296 31.7134 28.0516 31.944 27.5 32.1225Z" fill="#214253"/>
<path fill-rule="evenodd" clip-rule="evenodd" d="M25 45C36.0457 45 45 36.0457 45 25C45 13.9543 36.0457 5 25 5C13.9543 5 5 13.9543 5 25C5 36.0457 13.9543 45 25 45ZM27.5 12.5C27.5 11.1193 26.3807 10 25 10C23.6193 10 22.5 11.1193 22.5 12.5V12.73C20.946 13.0218 19.5087 13.5852 18.3099 14.3843C16.5058 15.5871 15 17.5233 15 20C15 22.4767 16.5058 24.4129 18.3099 25.6157C19.5087 26.4148 20.946 26.9782 22.5 27.27L22.5 32.1231C21.5225 31.8057 20.7979 31.3298 20.3917 30.8616C19.4868 29.8187 17.9078 29.7069 16.865 30.6117C15.8221 31.5166 15.7103 33.0956 16.6152 34.1384C18.0214 35.7591 20.1489 36.8271 22.5 37.2691L22.5 37.4999C22.5 38.8807 23.6192 40 24.9999 40C26.3807 40 27.5 38.8808 27.5 37.5001L27.5 37.27C29.054 36.9782 30.4913 36.4148 31.6901 35.6157C33.4943 34.4129 35.0001 32.4767 35.0001 30C35.0001 27.5233 33.4943 25.5871 31.6901 24.3843C30.4913 23.5852 29.054 23.0218 27.5 22.73L27.5 17.8769C28.4775 18.1943 29.2021 18.6702 29.6084 19.1384C30.5133 20.1813 32.0922 20.2931 33.1351 19.3883C34.1779 18.4834 34.2898 16.9044 33.3849 15.8616C31.9787 14.2409 29.8511 13.1729 27.5 12.7309V12.5Z" fill="#214253"/>
</svg>
