<svg width="50" height="50" viewBox="0 0 50 50" fill="none" xmlns="http://www.w3.org/2000/svg">
<path fill-rule="evenodd" clip-rule="evenodd" d="M25 45C36.0457 45 45 36.0457 45 25C45 13.9543 36.0457 5 25 5C13.9543 5 5 13.9543 5 25C5 36.0457 13.9543 45 25 45ZM17.5 22.5C18.8807 22.5 20 21.3807 20 20C20 18.6193 18.8807 17.5 17.5 17.5C16.1193 17.5 15 18.6193 15 20C15 21.3807 16.1193 22.5 17.5 22.5ZM35 20C35 21.3807 33.8807 22.5 32.5 22.5C31.1193 22.5 30 21.3807 30 20C30 18.6193 31.1193 17.5 32.5 17.5C33.8807 17.5 35 18.6193 35 20ZM33.8388 33.8386C34.8151 32.8623 34.8151 31.2794 33.8388 30.3031C32.8625 29.3268 31.2796 29.3268 30.3033 30.3031C27.3744 33.232 22.6256 33.232 19.6967 30.3031C18.7204 29.3268 17.1375 29.3268 16.1612 30.3031C15.1849 31.2794 15.1849 32.8623 16.1612 33.8386C21.0427 38.7202 28.9573 38.7202 33.8388 33.8386Z" fill="#214253"/>
</svg>
