<svg width="50" height="50" viewBox="0 0 50 50" fill="none" xmlns="http://www.w3.org/2000/svg">
<path d="M27.5 7.5C27.5 6.11929 26.3807 5 25 5C23.6193 5 22.5 6.11929 22.5 7.5V10C22.5 11.3807 23.6193 12.5 25 12.5C26.3807 12.5 27.5 11.3807 27.5 10V7.5Z" fill="#214253"/>
<path d="M39.142 14.3933C40.1183 13.417 40.1183 11.834 39.142 10.8577C38.1657 9.88142 36.5828 9.88142 35.6065 10.8577L33.8387 12.6255C32.8624 13.6018 32.8624 15.1847 33.8387 16.161C34.815 17.1373 36.398 17.1373 37.3743 16.161L39.142 14.3933Z" fill="#214253"/>
<path d="M45 25C45 26.3807 43.8807 27.5 42.5 27.5H40C38.6193 27.5 37.5 26.3807 37.5 25C37.5 23.6193 38.6193 22.5 40 22.5H42.5C43.8807 22.5 45 23.6193 45 25Z" fill="#214253"/>
<path d="M12.6255 16.1611C13.6018 17.1374 15.1847 17.1374 16.161 16.1611C17.1373 15.1848 17.1373 13.6019 16.161 12.6255L14.3932 10.8578C13.4169 9.88147 11.834 9.88147 10.8577 10.8578C9.88139 11.8341 9.88139 13.417 10.8577 14.3933L12.6255 16.1611Z" fill="#214253"/>
<path d="M12.5 25C12.5 26.3807 11.3807 27.5 10 27.5H7.5C6.11929 27.5 5 26.3807 5 25C5 23.6193 6.11929 22.5 7.5 22.5H10C11.3807 22.5 12.5 23.6193 12.5 25Z" fill="#214253"/>
<path d="M20 40V37.5H30V40C30 42.7614 27.7614 45 25 45C22.2386 45 20 42.7614 20 40Z" fill="#214253"/>
<path d="M30.0022 35C30.0387 34.1492 30.519 33.3843 31.192 32.8528C33.5114 31.0215 35 28.1846 35 25C35 19.4772 30.5228 15 25 15C19.4772 15 15 19.4772 15 25C15 28.1846 16.4886 31.0215 18.808 32.8528C19.481 33.3843 19.9613 34.1492 19.9978 35H30.0022Z" fill="#214253"/>
</svg>
