<svg width="24" height="25" viewBox="0 0 24 25" fill="none" xmlns="http://www.w3.org/2000/svg">
<path d="M22.2857 0.543945H1.70893C0.766071 0.543945 0 1.32073 0 2.2743V22.8136C0 23.7672 0.766071 24.5439 1.70893 24.5439H22.2857C23.2286 24.5439 24 23.7672 24 22.8136V2.2743C24 1.32073 23.2286 0.543945 22.2857 0.543945ZM7.25357 21.1154H3.69643V9.6618H7.25893V21.1154H7.25357ZM5.475 8.09752C4.33393 8.09752 3.4125 7.17073 3.4125 6.03502C3.4125 4.8993 4.33393 3.97252 5.475 3.97252C6.61071 3.97252 7.5375 4.8993 7.5375 6.03502C7.5375 7.17609 6.61607 8.09752 5.475 8.09752ZM20.5875 21.1154H17.0304V15.5439C17.0304 14.2154 17.0036 12.5064 15.1821 12.5064C13.3286 12.5064 13.0446 13.9529 13.0446 15.4475V21.1154H9.4875V9.6618H12.9V11.2261H12.9482C13.425 10.3261 14.5875 9.37787 16.3179 9.37787C19.9179 9.37787 20.5875 11.7511 20.5875 14.8368V21.1154Z" fill="#2867B2"/>
</svg>
