<svg width="50" height="50" viewBox="0 0 50 50" fill="none" xmlns="http://www.w3.org/2000/svg">
<path fill-rule="evenodd" clip-rule="evenodd" d="M25 45C36.0457 45 45 36.0457 45 25C45 13.9543 36.0457 5 25 5C13.9543 5 5 13.9543 5 25C5 36.0457 13.9543 45 25 45ZM23.8867 17.9199C23.1196 17.4085 22.1332 17.3608 21.3204 17.7958C20.5075 18.2309 20 19.078 20 20V30C20 30.922 20.5075 31.7691 21.3204 32.2042C22.1332 32.6392 23.1196 32.5916 23.8867 32.0801L31.3867 27.0801C32.0822 26.6165 32.5 25.8359 32.5 25C32.5 24.1641 32.0822 23.3835 31.3867 22.9199L23.8867 17.9199Z" fill="#214253"/>
</svg>
