<svg width="50" height="50" viewBox="0 0 50 50" fill="none" xmlns="http://www.w3.org/2000/svg">
<path fill-rule="evenodd" clip-rule="evenodd" d="M45 25C45 36.0457 36.0457 45 25 45C13.9543 45 5 36.0457 5 25C5 13.9543 13.9543 5 25 5C36.0457 5 45 13.9543 45 25ZM40 25C40 27.4815 39.3974 29.8223 38.3306 31.884L34.5191 28.0726C34.8313 27.1045 35 26.0719 35 25C35 24.1784 34.9009 23.38 34.7141 22.6159L38.621 18.709C39.5061 20.6222 40 22.7534 40 25ZM27.0864 34.782L31.0391 38.7347C29.1914 39.5483 27.1485 40 25 40C22.7534 40 20.6222 39.5061 18.709 38.621L22.6159 34.7141C23.38 34.9009 24.1784 35 25 35C25.7155 35 26.4135 34.9249 27.0864 34.782ZM15.3952 27.7927C15.1379 26.9064 15 25.9693 15 25C15 24.1702 15.1011 23.364 15.2916 22.593L15.0945 22.7901L11.2653 18.9609C10.4517 20.8086 10 22.8515 10 25C10 27.3846 10.5565 29.6393 11.5466 31.6413L15.3952 27.7927ZM18.116 11.6694C20.1777 10.6026 22.5185 10 25 10C27.3846 10 29.6393 10.5565 31.6413 11.5466L27.7927 15.3952C26.9064 15.1379 25.9693 15 25 15C23.9281 15 22.8955 15.1687 21.9274 15.4809L18.116 11.6694ZM30 25C30 27.7614 27.7614 30 25 30C22.2386 30 20 27.7614 20 25C20 22.2386 22.2386 20 25 20C27.7614 20 30 22.2386 30 25Z" fill="#214253"/>
</svg>
