<svg width="50" height="50" viewBox="0 0 50 50" fill="none" xmlns="http://www.w3.org/2000/svg">
<path d="M5 26.25C5 24.1789 6.67893 22.5 8.75 22.5C10.8211 22.5 12.5 24.1789 12.5 26.25V41.25C12.5 43.3211 10.8211 45 8.75 45C6.67893 45 5 43.3211 5 41.25V26.25Z" fill="#214253"/>
<path d="M15 25.8333V39.4098C15 41.3037 16.07 43.035 17.7639 43.882L17.8885 43.9443C19.2771 44.6385 20.8082 45 22.3607 45H35.901C38.2844 45 40.3365 43.3177 40.8039 40.9806L43.8039 25.9806C44.4227 22.8866 42.0562 20 38.901 20H30V10C30 7.23858 27.7614 5 25 5C23.6193 5 22.5 6.11929 22.5 7.5V9.16667C22.5 11.3304 21.7982 13.4357 20.5 15.1667L17 19.8333C15.7018 21.5643 15 23.6696 15 25.8333Z" fill="#214253"/>
</svg>
