<svg width="50" height="50" viewBox="0 0 50 50" fill="none" xmlns="http://www.w3.org/2000/svg">
<path d="M22.5 15C22.5 19.1421 19.1421 22.5 15 22.5C10.8579 22.5 7.5 19.1421 7.5 15C7.5 10.8579 10.8579 7.5 15 7.5C19.1421 7.5 22.5 10.8579 22.5 15Z" fill="#214253"/>
<path d="M42.5 15C42.5 19.1421 39.1421 22.5 35 22.5C30.8579 22.5 27.5 19.1421 27.5 15C27.5 10.8579 30.8579 7.5 35 7.5C39.1421 7.5 42.5 10.8579 42.5 15Z" fill="#214253"/>
<path d="M32.3228 42.5C32.4396 41.6835 32.5 40.8488 32.5 40C32.5 35.912 31.0984 32.1515 28.7494 29.1727C30.5881 28.1089 32.723 27.5 35 27.5C41.9036 27.5 47.5 33.0964 47.5 40V42.5H32.3228Z" fill="#214253"/>
<path d="M15 27.5C21.9036 27.5 27.5 33.0964 27.5 40V42.5H2.5V40C2.5 33.0964 8.09644 27.5 15 27.5Z" fill="#214253"/>
</svg>
