<svg width="310" height="220" viewBox="0 0 310 220" fill="none" xmlns="http://www.w3.org/2000/svg">
<path d="M162 100H148C147.204 100 146.441 100.316 145.879 100.879C145.316 101.441 145 102.204 145 103V117C145 117.796 145.316 118.559 145.879 119.121C146.441 119.684 147.204 120 148 120H162C162.164 119.998 162.328 119.981 162.49 119.95L162.79 119.88H162.86H162.91L163.28 119.74L163.41 119.67C163.51 119.61 163.62 119.56 163.72 119.49C163.854 119.392 163.98 119.285 164.1 119.17L164.17 119.08C164.268 118.981 164.358 118.874 164.44 118.76L164.53 118.63C164.6 118.519 164.66 118.402 164.71 118.28C164.737 118.232 164.761 118.182 164.78 118.13C164.83 118.01 164.86 117.88 164.9 117.75V117.6C164.957 117.405 164.99 117.203 165 117V103C165 102.204 164.684 101.441 164.121 100.879C163.559 100.316 162.796 100 162 100ZM148 118C147.735 118 147.48 117.895 147.293 117.707C147.105 117.52 147 117.265 147 117V112.69L150.29 109.39C150.383 109.296 150.494 109.222 150.615 109.171C150.737 109.12 150.868 109.094 151 109.094C151.132 109.094 151.263 109.12 151.385 109.171C151.506 109.222 151.617 109.296 151.71 109.39L160.31 118H148ZM163 117C162.999 117.123 162.975 117.245 162.93 117.36C162.907 117.409 162.88 117.456 162.85 117.5C162.823 117.542 162.793 117.582 162.76 117.62L157.41 112.27L158.29 111.39C158.383 111.296 158.494 111.222 158.615 111.171C158.737 111.12 158.868 111.094 159 111.094C159.132 111.094 159.263 111.12 159.385 111.171C159.506 111.222 159.617 111.296 159.71 111.39V111.39L163 114.69V117ZM163 111.86L161.12 110C160.548 109.457 159.789 109.154 159 109.154C158.211 109.154 157.452 109.457 156.88 110L156 110.88L153.12 108C152.548 107.457 151.789 107.154 151 107.154C150.211 107.154 149.452 107.457 148.88 108L147 109.86V103C147 102.735 147.105 102.48 147.293 102.293C147.48 102.105 147.735 102 148 102H162C162.265 102 162.52 102.105 162.707 102.293C162.895 102.48 163 102.735 163 103V111.86ZM156.5 104C156.203 104 155.913 104.088 155.667 104.253C155.42 104.418 155.228 104.652 155.114 104.926C155.001 105.2 154.971 105.502 155.029 105.793C155.087 106.084 155.23 106.351 155.439 106.561C155.649 106.77 155.916 106.913 156.207 106.971C156.498 107.029 156.8 106.999 157.074 106.886C157.348 106.772 157.582 106.58 157.747 106.333C157.912 106.087 158 105.797 158 105.5C158 105.102 157.842 104.721 157.561 104.439C157.279 104.158 156.898 104 156.5 104Z" fill="#333333"/>
<path d="M6 0.5H304C307.038 0.5 309.5 2.96243 309.5 6V219.5H0.5V5.99999C0.5 2.96243 2.96243 0.5 6 0.5Z" stroke="black"/>
</svg>
